<mxfile host="app.diagrams.net" agent="Mozilla/5.0 (Macintosh; Intel Mac OS X 10_15_7) AppleWebKit/537.36 (KHTML, like Gecko) Chrome/133.0.0.0 Safari/537.36" version="25.0.3">
  <diagram name="第 1 页" id="dQrEa5wr7djBq7OIatpX">
    <mxGraphModel dx="984" dy="707" grid="1" gridSize="10" guides="1" tooltips="1" connect="1" arrows="1" fold="1" page="1" pageScale="1" pageWidth="827" pageHeight="1169" math="0" shadow="0">
      <root>
        <mxCell id="0" />
        <mxCell id="1" parent="0" />
        <mxCell id="vWv0UdDCMS5IP7DEK0dk-3" style="edgeStyle=orthogonalEdgeStyle;rounded=0;orthogonalLoop=1;jettySize=auto;html=1;exitX=0.5;exitY=1;exitDx=0;exitDy=0;entryX=0.5;entryY=0;entryDx=0;entryDy=0;" edge="1" parent="1" source="vWv0UdDCMS5IP7DEK0dk-1" target="vWv0UdDCMS5IP7DEK0dk-2">
          <mxGeometry relative="1" as="geometry" />
        </mxCell>
        <mxCell id="vWv0UdDCMS5IP7DEK0dk-1" value="miyuan-service-wechat" style="rounded=1;whiteSpace=wrap;html=1;" vertex="1" parent="1">
          <mxGeometry x="340" y="130" width="120" height="60" as="geometry" />
        </mxCell>
        <mxCell id="vWv0UdDCMS5IP7DEK0dk-6" value="" style="edgeStyle=orthogonalEdgeStyle;rounded=0;orthogonalLoop=1;jettySize=auto;html=1;" edge="1" parent="1" source="vWv0UdDCMS5IP7DEK0dk-2" target="vWv0UdDCMS5IP7DEK0dk-5">
          <mxGeometry relative="1" as="geometry" />
        </mxCell>
        <mxCell id="vWv0UdDCMS5IP7DEK0dk-2" value="miyuan-wechat-service-push" style="rounded=1;whiteSpace=wrap;html=1;" vertex="1" parent="1">
          <mxGeometry x="340" y="290" width="120" height="60" as="geometry" />
        </mxCell>
        <mxCell id="vWv0UdDCMS5IP7DEK0dk-4" value="sendWechatMessage" style="text;html=1;align=center;verticalAlign=middle;whiteSpace=wrap;rounded=0;" vertex="1" parent="1">
          <mxGeometry x="420" y="220" width="60" height="30" as="geometry" />
        </mxCell>
        <mxCell id="vWv0UdDCMS5IP7DEK0dk-8" value="" style="edgeStyle=orthogonalEdgeStyle;rounded=0;orthogonalLoop=1;jettySize=auto;html=1;" edge="1" parent="1" source="vWv0UdDCMS5IP7DEK0dk-5" target="vWv0UdDCMS5IP7DEK0dk-7">
          <mxGeometry relative="1" as="geometry" />
        </mxCell>
        <mxCell id="vWv0UdDCMS5IP7DEK0dk-9" value="是" style="edgeLabel;html=1;align=center;verticalAlign=middle;resizable=0;points=[];" vertex="1" connectable="0" parent="vWv0UdDCMS5IP7DEK0dk-8">
          <mxGeometry x="-0.2333" y="4" relative="1" as="geometry">
            <mxPoint as="offset" />
          </mxGeometry>
        </mxCell>
        <mxCell id="vWv0UdDCMS5IP7DEK0dk-12" value="" style="edgeStyle=orthogonalEdgeStyle;rounded=0;orthogonalLoop=1;jettySize=auto;html=1;" edge="1" parent="1" source="vWv0UdDCMS5IP7DEK0dk-5" target="vWv0UdDCMS5IP7DEK0dk-11">
          <mxGeometry relative="1" as="geometry" />
        </mxCell>
        <mxCell id="vWv0UdDCMS5IP7DEK0dk-13" value="否" style="edgeLabel;html=1;align=center;verticalAlign=middle;resizable=0;points=[];" vertex="1" connectable="0" parent="vWv0UdDCMS5IP7DEK0dk-12">
          <mxGeometry x="-0.5" y="-4" relative="1" as="geometry">
            <mxPoint as="offset" />
          </mxGeometry>
        </mxCell>
        <mxCell id="vWv0UdDCMS5IP7DEK0dk-5" value="是否插队？" style="rhombus;whiteSpace=wrap;html=1;rounded=1;" vertex="1" parent="1">
          <mxGeometry x="360" y="420" width="80" height="80" as="geometry" />
        </mxCell>
        <mxCell id="vWv0UdDCMS5IP7DEK0dk-7" value="处理消息，入db，增加redis信息缓存" style="whiteSpace=wrap;html=1;rounded=1;" vertex="1" parent="1">
          <mxGeometry x="340" y="560" width="120" height="60" as="geometry" />
        </mxCell>
        <mxCell id="vWv0UdDCMS5IP7DEK0dk-11" value="根据wechatId分队列顺序，放入MQ" style="whiteSpace=wrap;html=1;rounded=1;" vertex="1" parent="1">
          <mxGeometry x="530" y="430" width="120" height="60" as="geometry" />
        </mxCell>
        <mxCell id="vWv0UdDCMS5IP7DEK0dk-18" style="edgeStyle=orthogonalEdgeStyle;rounded=0;orthogonalLoop=1;jettySize=auto;html=1;exitX=1;exitY=0.5;exitDx=0;exitDy=0;entryX=0;entryY=0.5;entryDx=0;entryDy=0;" edge="1" parent="1" source="vWv0UdDCMS5IP7DEK0dk-14" target="vWv0UdDCMS5IP7DEK0dk-7">
          <mxGeometry relative="1" as="geometry" />
        </mxCell>
        <mxCell id="vWv0UdDCMS5IP7DEK0dk-14" value="监听MQ" style="rounded=1;whiteSpace=wrap;html=1;" vertex="1" parent="1">
          <mxGeometry x="80" y="560" width="120" height="60" as="geometry" />
        </mxCell>
        <mxCell id="vWv0UdDCMS5IP7DEK0dk-21" value="" style="edgeStyle=orthogonalEdgeStyle;rounded=0;orthogonalLoop=1;jettySize=auto;html=1;" edge="1" parent="1" source="vWv0UdDCMS5IP7DEK0dk-19" target="vWv0UdDCMS5IP7DEK0dk-20">
          <mxGeometry relative="1" as="geometry" />
        </mxCell>
        <mxCell id="vWv0UdDCMS5IP7DEK0dk-19" value="推送线程" style="rounded=1;whiteSpace=wrap;html=1;" vertex="1" parent="1">
          <mxGeometry x="80" y="730" width="120" height="60" as="geometry" />
        </mxCell>
        <mxCell id="vWv0UdDCMS5IP7DEK0dk-23" value="" style="edgeStyle=orthogonalEdgeStyle;rounded=0;orthogonalLoop=1;jettySize=auto;html=1;" edge="1" parent="1" source="vWv0UdDCMS5IP7DEK0dk-20" target="vWv0UdDCMS5IP7DEK0dk-22">
          <mxGeometry relative="1" as="geometry" />
        </mxCell>
        <mxCell id="vWv0UdDCMS5IP7DEK0dk-20" value="根据messageId从Redis取信息，如果没有从db中读取" style="rounded=1;whiteSpace=wrap;html=1;" vertex="1" parent="1">
          <mxGeometry x="280" y="730" width="120" height="60" as="geometry" />
        </mxCell>
        <mxCell id="vWv0UdDCMS5IP7DEK0dk-22" value="推送数据" style="rounded=1;whiteSpace=wrap;html=1;" vertex="1" parent="1">
          <mxGeometry x="480" y="730" width="120" height="60" as="geometry" />
        </mxCell>
      </root>
    </mxGraphModel>
  </diagram>
</mxfile>
